<?xml version="1.0" encoding="UTF-8"?>
<svg width="550px" height="550px" viewBox="0 0 550 550" version="1.1" xmlns="http://www.w3.org/2000/svg" xmlns:xlink="http://www.w3.org/1999/xlink">
    <title>Coinbase</title>
    <defs>
        <path d="M275,0 C426.878306,-2.78995922e-14 550,123.121694 550,275 C550,426.878306 426.878306,550 275,550 C123.121694,550 1.85997282e-14,426.878306 0,275 C-1.85997282e-14,123.121694 123.121694,2.78995922e-14 275,0 Z" id="path-1"></path>
    </defs>
    <g id="Page-1" stroke="none" stroke-width="1" fill="none" fill-rule="evenodd">
        <g id="Fixtures-Copy" transform="translate(-100.000000, -100.000000)">
            <g id="Coinbase" transform="translate(100.000000, 100.000000)">
                <mask id="mask-2" fill="white">
                    <use xlink:href="#path-1"></use>
                </mask>
                <use id="Mask" fill="#154FE8" xlink:href="#path-1"></use>
                <path d="M280.478301,415 C202.386835,415.116014 142.467588,360.92609 134.742992,288.415725 C127.422224,219.686769 174.971462,153.342018 243.33322,138.604184 C290.412728,128.454161 332.508898,139.830587 368.972522,171.616259 C373.064075,175.183468 372.905629,177.021672 369.118348,180.64208 C357.310612,191.924706 345.832388,203.555932 334.407447,215.226359 C331.575048,218.118765 330.042468,219.137968 326.238361,215.82836 C301.107135,193.97291 266.434092,190.128502 237.459498,205.482337 C208.780764,220.677971 192.37669,251.770642 196.001319,284.067315 C199.588089,316.023788 222.285134,342.856249 254.19729,351.162468 C280.795193,358.086884 305.135591,352.356671 326.12198,334.43523 C329.707348,331.373423 331.289004,331.682824 334.300881,334.779631 C345.682355,346.492058 357.136742,358.154084 369.015989,369.35551 C373.329087,373.425319 372.395237,375.459523 368.540651,378.868531 C341.733823,402.584585 310.435822,414.460812 280.478301,415" id="Fill-1" fill="#FCFDFD" mask="url(#mask-2)"></path>
            </g>
        </g>
    </g>
</svg>